<svg xmlns="http://www.w3.org/2000/svg" viewBox="0 0 32 32"><defs><style>.icon-canvas-transparent{fill:#f6f6f6;opacity:0;}.brand-azure-blue{fill:#0072c6;}</style></defs><title>Azure_noHalo_32x</title><g id="canvas"><path class="icon-canvas-transparent" d="M32,0V32H0V0Z"/></g><g id="iconBg"><path class="brand-azure-blue" d="M32,28H7.538l-.007-.047,14.851-2.608c-.486-.58-.911-1.09-1.34-1.6q-3.053-3.613-6.108-7.225a.616.616,0,0,1-.187-.707c1.294-3.482,2.565-6.974,3.843-10.463.022-.061.049-.121.115-.28ZM16.019,6.851c.524-1.12,1.047-2.24,1.634-3.5-.2.146-.279.2-.351.257Q13.278,6.969,9.257,10.33a5.929,5.929,0,0,0-1.5,1.547c-2.139,3.741-4.316,7.46-6.478,11.188C.863,23.787.451,24.512,0,25.3H.58c2.064,0,4.128-.016,6.192.012a.8.8,0,0,0,.867-.543Q11.814,15.8,16.019,6.851Z"/></g></svg>