<svg xmlns="http://www.w3.org/2000/svg" viewBox="0 0 32 32"><style>.icon-canvas-transparent{opacity:0;fill:#f6f6f6}.brand-unity-darknavy{fill:#222c37}</style><path class="icon-canvas-transparent" d="M32 32H0V0h32v32z" id="canvas"/><g id="iconBg"><path class="brand-unity-darknavy" d="M31.61 12.71L28.193 0 15.442 3.406l-1.888 3.319-3.83-.028L.39 16.002l9.333 9.302 3.829-.028 1.89 3.319L28.193 32l3.417-12.708-1.94-3.291 1.94-3.291zm-7.995-7.951l-5.599 9.67h-11.2l7.047-7.17 9.752-2.5zm-5.599 12.812l5.601 9.668-9.754-2.499-7.047-7.169h11.2zm2.729-1.57l5.6-9.67 2.706 9.67-2.706 9.668-5.6-9.668z"/></g></svg>