<svg xmlns="http://www.w3.org/2000/svg" viewBox="0 0 32 32"><style>.icon-canvas-transparent{opacity:0;fill:#f6f6f6}.brand-python-yellow{fill:#f8c63d}.brand-python-blue{fill:#377ef0}</style><path class="icon-canvas-transparent" d="M32 32H0V0h32v32z" id="canvas"/><g id="iconBg"><path class="brand-python-blue" d="M15.81.001a23.97 23.97 0 0 0-3.821.312c-3.23.57-3.99 1.765-3.99 3.968v2.72h8v1H5.48a4.84 4.84 0 0 0-4.769 3.95 15.03 15.03 0 0 0 0 7.969C1.254 22.18 2.55 24 4.768 24h2.231v-3.829A5.6 5.6 0 0 1 12.162 15h7.625c2.123 0 4.212-1.319 4.212-3.451V4.28c0-2.069-1.942-3.623-4.014-3.968A26.165 26.165 0 0 0 15.81.001zm-4.128 2.34a1.455 1.455 0 1 1-1.433 1.477v-.017a1.447 1.447 0 0 1 1.433-1.46z"/><path class="brand-python-yellow" d="M31.239 12.035C30.691 9.828 29.643 8 27.422 8h-2.423v3.549c0 2.629-2.67 4.451-5.211 4.451h-7.626a4.564 4.564 0 0 0-4.163 4.269v7.269c0 2.069 1.972 3.286 3.99 3.879 2.579.776 5.33.776 7.909 0 1.922-.556 4.1-1.676 4.1-3.879V25h-7.999v-1h11.423c2.219 0 3.045-1.718 3.817-4.041.783-2.583.783-5.34 0-7.924zM20.267 26.57a1.455 1.455 0 1 1-1.432 1.477v-.027a1.44 1.44 0 0 1 1.432-1.45z"/></g></svg>