<svg xmlns="http://www.w3.org/2000/svg" viewBox="0 0 32 32"><style>.icon-canvas-transparent{opacity:0;fill:#f6f6f6}.brand-node-green{fill:#88d130}</style><path class="icon-canvas-transparent" d="M32 32H0V0h32v32z" id="canvas"/><g id="iconBg"><path class="brand-node-green" d="M16 32c-.432 0-.856-.113-1.23-.329l-3.915-2.317c-.584-.327-.3-.443-.106-.51a7.832 7.832 0 0 0 1.77-.805.3.3 0 0 1 .291.022l3.008 1.786c.113.06.249.06.363 0L27.9 23.079a.37.37 0 0 0 .179-.317V9.228A.38.38 0 0 0 27.9 8.9L16.18 2.143a.368.368 0 0 0-.361 0L4.1 8.907a.376.376 0 0 0-.186.321v13.533c0 .13.071.251.185.314l3.212 1.856c1.743.871 2.81-.155 2.81-1.186V10.383c0-.187.151-.338.338-.338h1.49a.338.338 0 0 1 .34.336v13.364c0 2.326-1.267 3.66-3.472 3.66a5.018 5.018 0 0 1-2.7-.734L3.041 24.9a2.477 2.477 0 0 1-1.23-2.139V9.228a2.47 2.47 0 0 1 1.23-2.137L14.767.315a2.569 2.569 0 0 1 2.465 0l11.725 6.776a2.473 2.473 0 0 1 1.232 2.137v13.533a2.483 2.483 0 0 1-1.232 2.139l-11.726 6.77c-.374.216-.799.33-1.231.33zm3.619-9.323c-5.131 0-6.206-2.355-6.206-4.331a.337.337 0 0 1 .336-.338h1.519a.339.339 0 0 1 .337.287c.229 1.543.911 2.322 4.015 2.322 2.47 0 3.522-.559 3.522-1.87 0-.756-.3-1.316-4.137-1.692-3.209-.317-5.193-1.026-5.193-3.593 0-2.366 1.994-3.777 5.338-3.777 3.757 0 5.615 1.3 5.851 4.1a.339.339 0 0 1-.308.368l-.03.001H23.14a.338.338 0 0 1-.329-.265c-.365-1.624-1.253-2.143-3.662-2.143-2.7 0-3.011.94-3.011 1.644 0 .853.37 1.1 4.012 1.583 3.6.476 5.315 1.151 5.315 3.684.001 2.556-2.13 4.02-5.846 4.02z"/></g></svg>