<svg xmlns="http://www.w3.org/2000/svg" viewBox="0 0 32 32"><style>.icon-white{fill:#fff}.icon-vs-action-orange{fill:#c27d1a}.icon-vso-bg{fill:#656565}.graph-yellow{fill:#fcb714}.graph-lightgrey{fill:#dfdfdf}.icon-canvas-transparent{opacity:0;fill:#f6f6f6}.brand-linux-darkbrown{fill:#764704}.st0{fill:#cd8907}.st1{fill:#7a4b00}</style><path class="icon-canvas-transparent" d="M32 32H0V0h32v32z" id="canvas"/><g id="iconBg"><path class="icon-black" d="M26.69 21.618a3.5 3.5 0 0 1-.488 1.23c-.05.202-.149.389-.267.56a3.077 3.077 0 0 1-1.544 1.161 1.96 1.96 0 0 1-.739.076c-.408.729-.9 1.413-1.456 2.04.129.219.256.438.386.657.328.552.724 1.076.909 1.691.092.307.129.636.07.951a1.369 1.369 0 0 1-.469.817 1.431 1.431 0 0 1-.582.266c-.21.047-.427.056-.642.05-.817-.023-1.609-.269-2.404-.462a17.812 17.812 0 0 0-3.307-.484c-.096-.006-.193-.011-.289-.023-.033.002-.065.009-.098.01a6.836 6.836 0 0 1-1.022-.04c-.117.01-.235.013-.352.015-.494.011-.982.1-1.466.2-.462.096-.923.202-1.379.322-.771.202-1.542.444-2.339.462a2.565 2.565 0 0 1-.625-.054 1.425 1.425 0 0 1-.566-.262c-.25-.2-.41-.501-.469-.816a2.037 2.037 0 0 1 .068-.949c.183-.614.575-1.139.896-1.694.105-.181.209-.362.31-.544A7.45 7.45 0 0 1 7.4 23.955a8.07 8.07 0 0 1-.768-1.192 4.324 4.324 0 0 1-.349-.873 2.25 2.25 0 0 1-.057-.934c.065-.392.255-.75.442-1.101.257-.482.514-.964.747-1.458.253-.535.478-1.084.643-1.652.146-.5.247-1.016.459-1.492.247-.553.636-1.029 1.018-1.501.31-.385.617-.772.925-1.158.287-.365.57-.733.851-1.104l-.006.04c.136-.231.261-.468.362-.717.005-.012.007-.025.011-.037.002-.132.01-.265.01-.397.001-.27-.03-.539-.053-.808-.069-.835-.053-1.674-.084-2.511-.03-.805-.104-1.61-.077-2.415.028-.82.165-1.649.529-2.384A4.03 4.03 0 0 1 13.682.514c.68-.366 1.461-.523 2.233-.514 1.047.011 2.097.328 2.944.942.531.385.979.881 1.331 1.434.301.472.535.988.681 1.529.301 1.109.229 2.278.288 3.425.029.574.09 1.147.134 1.72.056.089.115.178.167.269.34.597.6 1.236.887 1.861.106.231.219.459.331.688.212.285.405.586.615.874.434.597.993 1.094 1.437 1.684.453.603.778 1.293 1.055 1.995.377.954.673 1.942.849 2.952.13.743.194 1.506.056 2.245z"/><path class="icon-white" d="M12.889 9.251c.128-.16.302-.279.492-.356.19-.077.394-.113.598-.126.408-.024.816.048 1.225.064.513.02 1.028-.047 1.541-.021.257.013.513.049.757.13.244.08.475.207.661.384.181.174.315.391.423.618.108.227.193.463.29.694.237.563.549 1.092.805 1.647.354.77.597 1.59.721 2.428.463.478.85 1.031 1.14 1.631.842 1.742.835 3.771.606 5.692-.131 1.099-.342 2.224-.949 3.149-.315.481-.725.89-1.138 1.29-.685.664-1.396 1.32-2.239 1.769-1.611.859-3.637.857-5.275.052a6.169 6.169 0 0 1-1.313-.872 6.893 6.893 0 0 1-1.797-2.504c-.563-1.318-.746-2.785-.606-4.211.114-1.165.438-2.305.911-3.376a12.68 12.68 0 0 1 1.123-2.023 3.098 3.098 0 0 1 .113-1.203c.192-.641.584-1.2.972-1.745.224-.315.453-.637.556-1.01.096-.348.073-.717.087-1.078.007-.181.023-.362.068-.537.042-.175.115-.345.228-.486m.165-4.466a.835.835 0 0 0-.516.23 1.17 1.17 0 0 0-.3.485c-.122.365-.094.76-.067 1.143.025.347.051.701.181 1.023.065.161.156.313.278.438.122.124.275.22.444.262.158.04.327.031.483-.017a1.04 1.04 0 0 0 .414-.252 1.38 1.38 0 0 0 .35-.613 2.44 2.44 0 0 0 .081-.707 2.934 2.934 0 0 0-.136-.879 1.968 1.968 0 0 0-.45-.763 1.282 1.282 0 0 0-.345-.258.851.851 0 0 0-.417-.092m3.395 0c-.3.206-.551.493-.673.835-.155.431-.095.914.054 1.347.153.443.409.866.795 1.132.193.133.417.224.65.252.233.028.475-.01.683-.119.252-.132.446-.363.566-.622.12-.259.171-.546.187-.832a2.804 2.804 0 0 0-.135-1.077c-.13-.374-.365-.719-.697-.934a1.355 1.355 0 0 0-.551-.208 1.169 1.169 0 0 0-.583.065 1.515 1.515 0 0 0-.296.161"/><path class="icon-black" d="M17.139 5.69a.736.736 0 0 1 .311.048.997.997 0 0 1 .531.48c.112.217.148.47.116.712a1.159 1.159 0 0 1-.122.394.883.883 0 0 1-.27.309.802.802 0 0 1-.968-.044.946.946 0 0 1-.281-.416 1.35 1.35 0 0 1-.068-.501 1.21 1.21 0 0 1 .193-.64.83.83 0 0 1 .241-.235.68.68 0 0 1 .317-.107m-4.548.684c-.04.242-.042.496.042.726.055.152.146.291.255.409a.842.842 0 0 0 .25.194.46.46 0 0 0 .309.039.457.457 0 0 0 .239-.161.782.782 0 0 0 .131-.261 1.454 1.454 0 0 0-.013-.854 1.115 1.115 0 0 0-.326-.531.66.66 0 0 0-.264-.139.46.46 0 0 0-.295.024.508.508 0 0 0-.232.233 1.1 1.1 0 0 0-.096.321"/><path class="icon-vso-bg" d="M18.671 8.823c-.046-.09-.045-.42-.045-.469a.284.284 0 0 0-.04-.141.489.489 0 0 0-.227-.183c-.123-.055-.257-.082-.388-.114a5.532 5.532 0 0 1-1.167-.426c-.185-.092-.365-.193-.546-.291a3.205 3.205 0 0 0-.581-.258c-.454-.138-.95-.092-1.398.063a2.99 2.99 0 0 0-1.289.882 7.768 7.768 0 0 0-.553.505c-.097.098-.195.203-.238.334-.039.116-.031.243-.051.364-.006.042-.016.083-.016.125 0 .021.002.042.008.062.006.02.016.039.031.054a.168.168 0 0 0 .092.046c.013.003.027.003.04.004-.049.018-.101.035-.131.075a.247.247 0 0 0-.046.194c.356.22.676.49.945.799.249.286.461.611.786.822.23.15.506.234.786.26.329.03.661-.019.978-.104a3.61 3.61 0 0 0 .838-.34c.495-.281.909-.694 1.455-.879.119-.04.243-.069.358-.119a.548.548 0 0 0 .278-.23c.053-.101.051-.218.068-.33.018-.119.06-.234.082-.353a.538.538 0 0 0-.029-.352zm-2.863-3.259a1.783 1.783 0 0 1 .937-.94 1.17 1.17 0 0 1 .583-.065c.196.027.385.101.551.208.332.215.567.56.697.934.035.1.048.205.069.308-.154-.125-.306-.255-.473-.362-.579-.368-1.324-.448-1.98-.245-.133.041-.26.1-.384.162zm2.304-1.393c.395.262.691.651.895 1.081-.037.063-.08.119-.128.172-.203-.412-.493-.783-.875-1.037a1.9 1.9 0 0 0-.65-.276c.037-.077.083-.148.135-.212.221.051.433.146.623.272zm-5.08-.062c.182.003.365.049.528.123.187.084.353.204.498.34.06.056.115.116.168.178.112.221.189.463.222.717a2.537 2.537 0 0 0-.606-.895 1.847 1.847 0 0 0-.498-.34 1.37 1.37 0 0 0-.441-.116l.05-.003c.028-.002.053-.005.079-.004zm4.369 2.224c-.106-.105-.264-.242-.279-.349-.015-.107.337-.004.458.094.167.136.381.467.256.592-.06.06-.304-.209-.435-.337zm-4.298-.134c.026.068.114.093.162.148a.597.597 0 0 1 .121.175c.049.127-.048.315.054.404.032.028.096.029.128 0 .123-.112.096-.339.047-.498a.603.603 0 0 0-.289-.351c-.062-.032-.156-.058-.21-.013-.034.03-.029.093-.013.135zm-.865-.698a1.17 1.17 0 0 1 .3-.485.833.833 0 0 1 .516-.23.844.844 0 0 1 .418.092c.129.064.244.155.344.258.093.096.171.205.24.319a3.268 3.268 0 0 0-.44-.078c-.335-.032-.687.008-.977.18-.189.112-.338.275-.481.444.009-.17.026-.339.08-.5zm9.061 9.373c.527.321 1.112.556 1.607.922a3.414 3.414 0 0 1 1.337 2.154c.112.676.136 1.243-.079 2.03-.215.787-.526 1.539-.797 2.306-.141.399-.27.805-.319 1.228l-.008.088a1.855 1.855 0 0 1 .004-.459c.04-.31-.265-.189-.164-.483.253-.737.721-1.82.885-2.584.165-.765.3-1.117.198-1.765-.131-.831-.808-1.741-1.475-2.269-.408-.322-.622-.692-1.024-1.021-.057-.045-.111-.097-.165-.147zM19.158 2.739c.033.106-.578-.593-.82-.296-.205.252-.957.639-.953.608.004-.03.384-.734.265-.979-.119-.244-.239-.487.037-.682.276-.194 1.471 1.159 1.471 1.349zm.623 6.84c-.233.212.109.531.271.905.101.233.38.561.65.508.203-.04.329-.332.31-.538-.037-.397-.372-.49-.616-.627-.192-.107-.451-.397-.615-.248zm2.727 6.825c-.128.02.149.29.048.469-.127.222-.369.487-.302.601.066.114.463-.066.608-.068.145-.002.348.149.456-.101.107-.249-.682-.921-.81-.901z"/><path class="graph-lightgrey" d="M12.637 11.167c-.134-.389-.166-.808-.316-1.191-.042-.106-.092-.209-.12-.32a.566.566 0 0 1-.019-.169.373.373 0 0 1 .042-.164.414.414 0 0 1 .223-.188.692.692 0 0 1 .293-.035c.198.014.391.083.589.086a1.53 1.53 0 0 0 .512-.102c.166-.056.331-.118.504-.146.403-.064.81.07 1.218.069.357-.001.707-.104 1.064-.126.286-.017.573.019.859.002.216-.012.431-.054.646-.034.107.01.214.036.31.087a.55.55 0 0 1 .229.222c.065.126.068.274.064.415-.004.142-.013.287.032.422.05.151.163.273.237.413a.54.54 0 0 1 .068.227.303.303 0 0 1-.076.22.301.301 0 0 1-.172.084.53.53 0 0 1-.194-.011c-.127-.027-.249-.083-.378-.091-.173-.012-.342.061-.483.161s-.261.228-.389.345c-.28.255-.601.46-.933.642-.275.151-.56.287-.825.455-.155.098-.303.207-.462.297a1.28 1.28 0 0 1-.516.177 1.106 1.106 0 0 1-.545-.105 2.194 2.194 0 0 1-.47-.303c-.439-.353-.808-.808-.992-1.339m-1.221 2.116s-.328.528-.462 1.078.064.533-.106.906c-.169.374-.848 1.615-.848 1.615.419-.377.754-.816 1.211-1.152.461-.34 1.059-.597 1.746-.827.442-.102.889-.151.889-.151-2.55.362-2.373-.204-2.482-.368-.216-.325.052-1.101.052-1.101zm8.149.952c.52-.362.63-1.235.63-1.235s.079 1.08.245 1.63c.166.55.731 1.139.941 1.512.21.374.185.874.185.874-.52-.377-.92-.916-1.464-1.26-.382-.242-.612-.31-1.241-.549-.629-.239-1.746-.337-2.294-.439-.548-.102-.795-.097-.795-.097s1.707.026 2.337-.045c.632-.072.936-.029 1.456-.391zm-4.888-.773a.871.871 0 0 0 .081.631c.068.123.166.228.278.313.22.166.499.253.775.24a1.109 1.109 0 0 0-.98.367 1.594 1.594 0 0 0-.336.58 1.768 1.768 0 0 0-.078.366 3.353 3.353 0 0 0-.004-.558 1.085 1.085 0 0 0-.105-.421.513.513 0 0 0-.14-.167.524.524 0 0 0-.182-.081 1.305 1.305 0 0 0-.197-.032 8.427 8.427 0 0 0-.316-.029c.264-.033.524-.107.766-.217a.665.665 0 0 0 .175-.106.5.5 0 0 0 .127-.193c.029-.073.045-.149.06-.226.031-.154.056-.31.076-.467m-.665 3.667c.047.673.052 1.349.014 2.023-.05.878-.171 1.755-.121 2.632.028.501.113 1.002.067 1.501a3.26 3.26 0 0 1-.045.31 3.177 3.177 0 0 1-.275-.848c-.109-.616-.035-1.247-.002-1.872.039-.736.023-1.475.091-2.209a9.442 9.442 0 0 1 .271-1.537"/><path class="st0" d="M12.14 9.382c.026-.058.058-.115.093-.168a.398.398 0 0 1 .051-.064.194.194 0 0 1 .069-.044c.042-.013.087-.006.132-.005a.549.549 0 0 0 .248-.059 1.02 1.02 0 0 0 .212-.145c.13-.112.242-.245.384-.343.145-.1.316-.159.489-.189a2.51 2.51 0 0 1 .527-.024c.406.017.812.079 1.218.059.356-.017.707-.098 1.064-.108.286-.009.574.028.859.002.216-.02.429-.075.645-.064a.768.768 0 0 1 .313.077.5.5 0 0 1 .226.224.64.64 0 0 1 .03.385c-.023.129-.064.254-.082.383-.017.121-.015.248-.068.358-.055.115-.163.196-.278.25s-.239.085-.358.129c-.546.201-.96.649-1.455.954a3.44 3.44 0 0 1-.838.368 2.58 2.58 0 0 1-.978.113 1.656 1.656 0 0 1-.786-.282c-.326-.229-.542-.578-.786-.893-.182-.235-.387-.457-.638-.615-.047-.03-.096-.057-.141-.09a.428.428 0 0 1-.116-.12.278.278 0 0 1-.036-.089"/><path class="st1" d="M13.036 8.482A4.086 4.086 0 0 1 14.279 8a3.843 3.843 0 0 1 1.978.106c.181.058.359.128.546.159.199.033.403.022.604.038.201.016.41.064.563.195a.51.51 0 0 1 .061.062.231.231 0 0 1 .039.068.102.102 0 0 1-.004.077.109.109 0 0 1-.029.035.155.155 0 0 1-.037.026c-.147.087-.309.147-.453.237-.163.102-.3.241-.445.368a3.527 3.527 0 0 1-1.09.649c-.26.096-.53.159-.8.22-.344.077-.692.151-1.044.145-.352-.006-.714-.098-.987-.32-.101-.082-.188-.18-.284-.267a.777.777 0 0 0-.333-.194c-.026-.006-.053-.01-.079-.018s-.051-.02-.07-.04a.14.14 0 0 1-.03-.055.214.214 0 0 1-.006-.062c.002-.042.013-.083.018-.124.008-.061.004-.123.005-.184a.443.443 0 0 1 .033-.18.52.52 0 0 1 .181-.183c.137-.097.276-.191.42-.276"/><path class="brand-linux-darkbrown" d="M29.403 27.354a1.817 1.817 0 0 1-.303.51c-.283.336-.675.557-1.066.756-.667.34-1.358.638-1.984 1.047-.42.274-.807.595-1.17.942-.31.296-.604.613-.951.864a2.738 2.738 0 0 1-1.184.501c-.52.078-1.058-.023-1.54-.233-.338-.147-.663-.358-.858-.671-.195-.314-.24-.699-.24-1.069-.001-.655.12-1.302.235-1.947.095-.536.185-1.072.243-1.613.106-.984.105-1.977.035-2.964-.012-.165-.026-.332-.001-.496a.706.706 0 0 1 .218-.435.701.701 0 0 1 .424-.152c.153-.009.305.016.457.038.357.052.717.093 1.065.185.22.058.434.136.654.195.367.099.75.147 1.128.102.406-.047.8-.2 1.209-.19.168.004.334.036.494.086.163.051.324.125.444.247.091.093.155.21.202.331.071.18.109.372.126.565.014.171.012.344.045.513.053.277.199.53.38.747.181.217.398.401.614.583.215.181.432.361.664.52.109.074.221.144.325.226.104.082.199.177.263.292a.74.74 0 0 1 .072.52M6.951 21.876a1.131 1.131 0 0 0-.425.33 2.904 2.904 0 0 0-.295.455c-.089.159-.175.319-.281.465-.107.146-.235.28-.392.37a1.325 1.325 0 0 1-.546.153c-.19.016-.381.006-.571.001a2.518 2.518 0 0 0-.569.036 1.018 1.018 0 0 0-.506.25 1.024 1.024 0 0 0-.276.544 2.411 2.411 0 0 0-.02.618c.032.462.107.92.13 1.382.023.462-.008.936-.18 1.366-.105.263-.261.504-.358.771a1.283 1.283 0 0 0-.083.415.792.792 0 0 0 .1.408.907.907 0 0 0 .416.347c.167.076.347.118.523.167.398.109.786.25 1.182.369 1.286.387 2.641.543 3.888 1.04.612.244 1.214.573 1.873.598.414.016.832-.095 1.187-.309.355-.214.647-.53.837-.898.271-.524.331-1.15.175-1.719-.12-.437-.359-.833-.629-1.197-.27-.364-.573-.703-.842-1.069-.412-.56-.739-1.176-1.095-1.772a28.75 28.75 0 0 0-1.427-2.136c-.219-.302-.448-.607-.757-.816a1.356 1.356 0 0 0-.511-.218.968.968 0 0 0-.548.049"/><path class="icon-vs-action-orange" d="M29.067 27.015a1.63 1.63 0 0 1-.277.459c-.259.303-.617.501-.974.68-.609.305-1.239.573-1.812.941a7.387 7.387 0 0 0-1.068.847c-.283.266-.552.551-.869.776a2.513 2.513 0 0 1-1.081.45c-.475.07-.965-.021-1.407-.21-.308-.132-.605-.32-.783-.603-.177-.282-.219-.628-.22-.961-.001-.589.11-1.171.214-1.75.087-.481.17-.964.222-1.45.096-.884.091-1.777.031-2.664-.01-.149-.022-.299.001-.446a.64.64 0 0 1 .197-.391.641.641 0 0 1 .388-.138c.14-.007.279.015.417.036.326.048.654.084.973.166.201.052.397.122.597.175a2.78 2.78 0 0 0 1.03.092c.371-.043.731-.18 1.104-.171.153.004.305.032.451.077a.957.957 0 0 1 .406.222c.083.083.14.189.185.297.067.161.111.334.115.508.004.183-.036.366-.011.546.02.147.082.285.162.41.079.125.176.238.272.351.185.219.371.441.603.609.264.191.578.303.851.481.081.053.16.113.217.192a.516.516 0 0 1 .066.469M7.224 22.173a.942.942 0 0 0-.41.348 2.31 2.31 0 0 0-.239.486c-.066.168-.127.338-.213.497a1.134 1.134 0 0 1-.35.409 1.13 1.13 0 0 1-.568.173c-.2.012-.4-.01-.599-.028a2.493 2.493 0 0 0-.598-.001.959.959 0 0 0-.536.248.947.947 0 0 0-.247.486 2.118 2.118 0 0 0-.024.551c.025.412.097.82.124 1.232.028.412.009.835-.139 1.22-.098.255-.251.486-.348.741a1.209 1.209 0 0 0-.087.398.75.75 0 0 0 .091.394c.092.159.251.27.42.341.169.071.35.108.528.153.402.101.792.246 1.192.355 1.116.308 2.296.361 3.384.756.568.204 1.118.506 1.722.533.378.017.76-.078 1.086-.268.327-.19.598-.475.774-.809a2.108 2.108 0 0 0 .161-1.533c-.11-.393-.332-.746-.581-1.07-.249-.324-.527-.624-.771-.952-.368-.494-.653-1.043-.952-1.581a50.377 50.377 0 0 0-1.241-2.108c-.178-.286-.364-.577-.631-.783a1.174 1.174 0 0 0-.451-.221.843.843 0 0 0-.497.033"/><path class="graph-yellow" d="M12.99 7.995a2.99 2.99 0 0 1 1.289-.882c.448-.156.944-.201 1.398-.063.203.062.394.158.58.258.182.097.361.199.546.291.372.185.764.328 1.167.426.131.032.265.059.388.114.09.04.177.098.227.183.025.043.04.091.04.141s-.015.097-.047.135a.228.228 0 0 1-.091.065.342.342 0 0 1-.11.022c-.075.003-.149-.014-.223-.026a.643.643 0 0 0-.296.005.523.523 0 0 0-.169.098c-.05.042-.096.089-.143.134a4.597 4.597 0 0 1-.445.368c-.34.254-.695.493-1.09.649a4.6 4.6 0 0 1-.8.22c-.342.068-.689.121-1.037.108s-.699-.096-.994-.283c-.133-.084-.253-.188-.383-.278a.966.966 0 0 0-.431-.183c-.035-.004-.07-.005-.104-.012a.175.175 0 0 1-.092-.046.141.141 0 0 1-.032-.054.216.216 0 0 1-.009-.062c0-.042.01-.084.018-.125.023-.11.035-.223.071-.33.046-.136.128-.257.218-.368.159-.195.346-.366.554-.505m16.039 18.832c-.074.168-.17.324-.285.463a2.365 2.365 0 0 1-1 .687c-.621.235-1.298.266-1.908.533-.371.163-.705.408-1.044.64a5.274 5.274 0 0 1-.854.499c-.339.148-.7.231-1.062.289a3.25 3.25 0 0 1-.696.051 1.495 1.495 0 0 1-.671-.186.936.936 0 0 1-.379-.387c-.092-.187-.108-.406-.106-.617.006-.564.126-1.121.123-1.685-.003-.491-.1-.975-.128-1.465-.054-.942.148-1.9-.029-2.824-.029-.148-.067-.296-.065-.447a.64.64 0 0 1 .039-.221.406.406 0 0 1 .126-.177.37.37 0 0 1 .163-.07.547.547 0 0 1 .176.001c.117.018.228.064.342.098.325.097.669.095.999.168.208.046.408.121.614.177.345.094.704.134 1.058.093.38-.045.752-.183 1.134-.173.157.004.312.033.463.078a.955.955 0 0 1 .417.225c.082.083.142.19.19.3.07.161.119.336.118.514-.001.093-.015.184-.023.276a.852.852 0 0 0 .011.276c.022.09.068.171.121.244.053.073.113.141.167.213.153.201.262.436.381.663.119.226.253.45.441.613.256.222.588.311.874.486a.727.727 0 0 1 .223.194.513.513 0 0 1 .09.226.51.51 0 0 1-.02.245M7.077 21.782a.867.867 0 0 0-.396.455 2.202 2.202 0 0 0-.133.596c-.024.202-.043.407-.101.602a1.009 1.009 0 0 1-.323.512 1.025 1.025 0 0 1-.587.193c-.21.01-.419-.023-.626-.053a2.64 2.64 0 0 0-.627-.037.948.948 0 0 0-.569.236.835.835 0 0 0-.227.418 1.408 1.408 0 0 0-.022.476c.036.358.155.701.236 1.052.082.35.127.722.018 1.065-.074.233-.216.44-.311.666a1.124 1.124 0 0 0-.093.354.632.632 0 0 0 .071.355c.084.153.241.256.406.318.165.062.342.089.514.125.392.082.771.215 1.158.318.917.245 1.881.323 2.772.647.502.183.987.445 1.521.492.339.03.687-.032.99-.184.303-.152.56-.394.718-.69.24-.449.244-.988.148-1.487-.142-.742-.487-1.434-.911-2.064-.313-.464-.669-.899-.978-1.365-.427-.642-.759-1.34-1.115-2.022-.155-.297-.321-.6-.584-.813a1.065 1.065 0 0 0-.452-.222.773.773 0 0 0-.497.057"/><path class="icon-black" d="M15.36 7.357c.104-.058.247-.036.358.007.086.034.221.092.208.184-.009.07-.118.096-.188.094-.073-.002-.126-.076-.191-.11-.075-.038-.203-.025-.228-.105-.009-.025.017-.057.041-.07zm-1.273.025c-.096-.031-.254.138-.202.224.014.024.058.054.087.038.044-.024.08-.111.128-.145.032-.023.024-.105-.013-.117z"/></g></svg>