<svg xmlns="http://www.w3.org/2000/svg" viewBox="0 0 32 32"><style>.icon-canvas-transparent{opacity:0;fill:#f6f6f6}.brand-xamarin-blue{fill:#3498db}</style><path class="icon-canvas-transparent" d="M32 32H0V0h32v32z" id="canvas"/><g id="iconBg"><path class="brand-xamarin-blue" d="M31.679 14.759L24.912 3.005a2.54 2.54 0 0 0-2.145-1.241H9.233a2.538 2.538 0 0 0-2.145 1.241L.321 14.759a2.56 2.56 0 0 0 0 2.482l6.767 11.755a2.54 2.54 0 0 0 2.145 1.241h13.534a2.538 2.538 0 0 0 2.145-1.241l6.767-11.755a2.56 2.56 0 0 0 0-2.482zm-9.092 8.601h-2.334a.31.31 0 0 1-.265-.161l-3.95-7.057a.307.307 0 0 1-.038-.114.307.307 0 0 1-.038.114l-3.96 7.057a.308.308 0 0 1-.255.161H9.413c-.212.002-.371-.271-.265-.455L13.014 16 9.148 9.086c-.093-.167.02-.41.208-.445a.271.271 0 0 1 .057 0h2.334a.31.31 0 0 1 .255.151l3.96 7.057c.02.035.033.074.038.114a.307.307 0 0 1 .038-.114l3.95-7.057a.309.309 0 0 1 .265-.151h2.334c.207.002.362.262.265.445L18.986 16l3.865 6.905c.106.184-.052.456-.264.455z"/></g></svg>