<svg xmlns="http://www.w3.org/2000/svg" viewBox="0 0 32 32"><style>.icon-canvas-transparent{opacity:0;fill:#f6f6f6}.icon-vs-bg{fill:#424242}.icon-white{fill:#fff}.icon-cpp-purple{fill:#9b4f96}</style><path class="icon-canvas-transparent" d="M32 32H0V0h32v32z" id="canvas"/><path class="icon-white" d="M28 8v16H4V10h2v2h2v2h6v-2h2V8h12z" id="iconFg"/><path class="icon-vs-bg" d="M17 26v2h5v2H10v-2h5v-2H2V10h2v14h24V8H16V6h14v20H17z" id="iconBg"/><g id="colorImportance"><path class="icon-cpp-purple" d="M6 6v2H4V6H2V4h2V2h2v2h2v2H6zm8 2h-2V6h-2v2H8v2h2v2h2v-2h2V8z"/></g></svg>