<svg xmlns="http://www.w3.org/2000/svg" viewBox="0 0 32 32"><style>.icon-canvas-transparent{opacity:0;fill:#f6f6f6}.icon-vs-bg{fill:#424242}.icon-white{fill:#fff}.icon-cpp-purple{fill:#9b4f96}</style><path class="icon-canvas-transparent" d="M32 32H0V0h32v32z" id="canvas"/><path class="icon-white" d="M29.422 25.006c-.375.578-1.033.896-1.33.976-.588-.348-2.033-1.98-2.828-2.879-1.116-1.262-1.52-1.695-1.875-1.945l-.06-.042-.063-.038c-.094-.057-.184-.121-.27-.181C22.109 20.277 21.321 20 19 20h-6c-2.319 0-3.107.277-3.996.895-.089.062-.18.128-.285.191l-.065.039-.062.044c-.339.241-.736.668-1.856 1.932-.793.896-2.23 2.522-2.823 2.877-.324-.087-.967-.403-1.332-.967-.459-.712-.858-1.84-.331-4.799.555-3.104 3.277-9.022 3.643-9.752.014-.028.057-.089.107-.153V12h2v2h6v-2h2V9H19.289l.412-.197c.246-.118.5-.286.746-.449.086-.057.168-.112.228-.148l.316-.185a3.43 3.43 0 0 1 .384-.017c.641 0 1.453.102 1.896.2.568.122 1.729.326 1.729.488v.73l.726.6c.205.169.348.371.38.435.368.733 3.088 6.649 3.644 9.753.527 2.962.129 4.088-.328 4.796z" id="iconFg"/><path class="icon-vs-bg" d="M31.95 22.704c-.012 1.377-.306 2.446-.897 3.361-.841 1.297-2.341 1.901-3.09 1.901-.969 0-2.03-1.085-4.221-3.561-.551-.623-1.306-1.476-1.526-1.632a6.452 6.452 0 0 1-.381-.253c-.443-.309-.793-.536-2.844-.536h-5.982c-2.051 0-2.402.227-2.845.535-.123.086-.25.174-.394.261-.207.147-.961 1-1.511 1.622-2.191 2.477-3.252 3.563-4.221 3.563-.75 0-2.25-.604-3.089-1.899-.592-.918-.886-1.987-.898-3.365v-.006c-.007-.826.088-1.764.28-2.845.539-3.012 2.831-7.835 3.603-9.829h2.098v.306c0 .064-.093.125-.107.153-.365.728-3.078 6.628-3.632 9.722-.525 2.95-.128 4.074.33 4.784.365.562 1.005.878 1.328.964.591-.354 2.024-1.974 2.814-2.868 1.116-1.261 1.512-1.686 1.85-1.926l.062-.044.065-.039c.105-.063.195-.128.284-.19.886-.616 1.671-.892 3.983-.892h5.982c2.313 0 3.099.276 3.984.893.086.06.175.124.269.181l.062.038.059.042c.354.25.757.681 1.869 1.939.793.896 2.232 2.523 2.819 2.87.296-.079.952-.397 1.326-.973.455-.706.852-1.828.327-4.781-.554-3.095-3.266-8.992-3.632-9.723a1.718 1.718 0 0 0-.378-.433l-.724-.598v-.728c0-.161-1.157-.364-1.723-.487a10.26 10.26 0 0 0-1.891-.199c-.192 0-.315.009-.382.017-.077.044-.19.111-.315.185-.06.036-.142.091-.227.148-.246.163-.499.33-.744.448l-.41.197H16V7.031h2.823c.201 0 .61-.389.82-.514a8.94 8.94 0 0 1 .583-.326c.244-.111.66-.154 1.131-.154.799 0 1.759.123 2.314.245 1.041.226 2.488.703 2.807.893.302.18.486.505.486.856v.475c0 .336.728.753.891 1.076.403.803 3.209 6.892 3.814 10.268.192 1.081.287 2.018.28 2.844v.01zm-19.438-3.708a1.495 1.495 0 1 0 0-2.99 1.495 1.495 0 0 0 0 2.99zm10.467-8.972a.997.997 0 1 0 0 1.994.997.997 0 0 0 0-1.994zm-4.985 7.477a1.495 1.495 0 1 0 2.99 0 1.495 1.495 0 0 0-2.99 0zm6.978-3.489a.997.997 0 1 0 .001-1.993.997.997 0 0 0-.001 1.993zm-3.987-1.994a.997.997 0 1 0 0 1.994.997.997 0 0 0 0-1.994zm1.994 3.988a.997.997 0 1 0 .001-1.993.997.997 0 0 0-.001 1.993z" id="iconBg"/><g id="colorImportance"><path class="icon-cpp-purple" d="M6 6.002v2H4v-2H2v-2h2v-2h2v2h2v2H6zm8 2h-2v-2h-2v2H8v2h2v2h2v-2h2v-2z"/></g></svg>