<svg xmlns="http://www.w3.org/2000/svg" viewBox="0 0 32 32"><style>.icon-canvas-transparent{opacity:0;fill:#f6f6f6}.icon-vs-bg{fill:#424242}.icon-white{fill:#fff}.icon-cpp-purple{fill:#9b4f96}</style><path class="icon-canvas-transparent" d="M32 32H0V0h32v32z" id="canvas"/><path class="icon-white" d="M24 5.961L10 6v23.038L24 29V5.961z" id="iconFg"/><path class="icon-vs-bg" d="M26 5.961v23.077C26 30.12 25.103 31 24 31H10c-1.103 0-2-.88-2-1.962V14h2v15.038L24 29V5.961l-10 .028V4h10c1.103 0 2 .88 2 1.961zm-9.867 19.706V27.4h1.733v-1.733h-1.733z" id="iconBg"/><g id="colorImportance"><path class="icon-cpp-purple" d="M6 6v2H4V6H2V4h2V2h2v2h2v2H6zm8 2h-2V6h-2v2H8v2h2v2h2v-2h2V8z"/></g></svg>