<svg xmlns="http://www.w3.org/2000/svg" viewBox="0 0 32 32"><style>.icon-canvas-transparent{opacity:0;fill:#f6f6f6}.icon-vs-bg{fill:#424242}.icon-white{fill:#fff}.graph-frame-lime{fill:#9eca00}</style><path class="icon-canvas-transparent" d="M32 32H0V0h32v32z" id="canvas"/><path class="graph-frame-lime" d="M29.18 28.949A1.993 1.993 0 0 1 27.403 30H15.598c-.902 0-1.51-.543-1.777-1.051-.17-.321-.384-.965.095-1.665L15.448 25h12.105l1.537 2.292c.474.692.26 1.336.09 1.657z" id="iconFg"/><g id="iconBg"><path class="icon-vs-bg" d="M10 24H8V10h2v14zm8-14V4h-2v6h2zm-4 9.977V0h-2v22.96l2-2.983zM10.088 26H2V0H0v28h9.628a5.5 5.5 0 0 1 .46-2zM6 8H4v16h2V8zm24.95 21.883A3.993 3.993 0 0 1 27.403 32H15.598a3.991 3.991 0 0 1-3.547-2.117 3.551 3.551 0 0 1 .209-3.72l5.74-8.56V14h-1v-2h9v2h-1v3.604l5.745 8.567c.763 1.113.841 2.504.205 3.712zM16.789 23h9.422L23 18.213V14h-3v4.213L16.789 23zm12.301 4.292L27.553 25H15.448l-1.532 2.284c-.479.7-.265 1.344-.095 1.665A1.993 1.993 0 0 0 15.598 30h11.805c.902 0 1.51-.543 1.777-1.051.17-.321.384-.965-.09-1.657z"/><path class="icon-white" d="M16.789 23h9.422L23 18.213V14h-3v4.213L16.789 23z"/></g></svg>