<svg xmlns="http://www.w3.org/2000/svg" viewBox="0 0 32 32"><style>.icon-canvas-transparent{opacity:0;fill:#f6f6f6}.icon-vs-bg{fill:#424242}.icon-white{fill:#fff}.icon-visualstudio{fill:#68217a}</style><path class="icon-canvas-transparent" d="M32 32H0V0h32v32z" id="canvas"/><path class="icon-white" d="M28 8v16H4v-4h16V8h8z" id="iconFg"/><path class="icon-vs-bg" d="M17 26v2h5v2H10v-2h5v-2H2v-6h2v4h24V8h-8V6h10v20H17z" id="iconBg"/><path class="icon-visualstudio" d="M18 0v18H0V0h18z" id="colorImportance"/><g id="notificationFg"><path class="icon-white" d="M2.81 10.114a.463.463 0 0 0-.334.131.418.418 0 0 0-.138.315c0 .121.046.224.138.31.091.087.203.13.334.13a.478.478 0 0 0 .34-.13.407.407 0 0 0 .14-.31.413.413 0 0 0-.14-.315.475.475 0 0 0-.34-.131zM7.442 9.253c0 .298.011.509.033.634h-.014a3.328 3.328 0 0 0-.177-.289L5.111 6.221h-.909v4.707h.755V7.842a4.96 4.96 0 0 0-.026-.647h.02c.037.095.083.185.141.273l2.249 3.46h.854V6.221h-.753v3.032zM10.14 8.876h1.618v-.66H10.14V6.884h1.756v-.663H9.359v4.707h2.642v-.66H10.14zM12.408 6.221v.663h1.349v4.044h.781V6.884h1.353v-.663z"/><path class="icon-white" d="M2.81 10.114a.463.463 0 0 0-.334.131.418.418 0 0 0-.138.315c0 .121.046.224.138.31.091.087.203.13.334.13a.478.478 0 0 0 .34-.13.407.407 0 0 0 .14-.31.413.413 0 0 0-.14-.315.475.475 0 0 0-.34-.131zM7.442 9.253c0 .298.011.509.033.634h-.014a3.328 3.328 0 0 0-.177-.289L5.111 6.221h-.909v4.707h.755V7.842a4.96 4.96 0 0 0-.026-.647h.02c.037.095.083.185.141.273l2.249 3.46h.854V6.221h-.753v3.032zM10.14 8.876h1.618v-.66H10.14V6.884h1.756v-.663H9.359v4.707h2.642v-.66H10.14zM12.408 6.221v.663h1.349v4.044h.781V6.884h1.353v-.663z"/></g></svg>