<svg xmlns="http://www.w3.org/2000/svg" viewBox="0 0 32 32"><style>.icon-canvas-transparent{opacity:0;fill:#f6f6f6}.icon-vs-bg{fill:#424242}.icon-white{fill:#fff}</style><path class="icon-canvas-transparent" d="M32 32H0V0h32v32z" id="canvas"/><path class="icon-white" d="M4 11h4v8H4v-8zm18 2V5H8v4h2v4h12zm2 0v2H14v8h14V13h-4z" id="iconFg"/><g id="iconBg"><path class="icon-vs-bg" d="M30 25V11h-6V3H6v6H2v12h8v-6h2v10h8v2h-4v2h10v-2h-4v-2h8zM8 19H4v-8h4v8zm2-6V9H8V5h14v8H10zm4 10v-8h10v-2h4v10H14z"/></g></svg>