<svg xmlns="http://www.w3.org/2000/svg" viewBox="0 0 32 32"><style>.icon-vs-bg{fill:#424242}.icon-asp-html-wpf-blue{fill:#0095d7}</style><g id="colorImportance"><path class="icon-vs-bg" d="M17.787 1.759c-4.348 0-8.235 1.962-10.842 5.044a9.274 9.274 0 0 1 4.537 1.953 9.475 9.475 0 0 1 6.215-2.327c5.275 0 9.551 4.285 9.551 9.57s-4.276 9.57-9.551 9.57a9.475 9.475 0 0 1-6.215-2.327 9.274 9.274 0 0 1-4.537 1.953c2.607 3.082 6.494 5.044 10.842 5.044C25.637 30.241 32 23.865 32 16c0-7.865-6.363-14.241-14.213-14.241z"/><ellipse class="icon-asp-html-wpf-blue" cx="5.317" cy="16" rx="5.317" ry="5.327"/></g></svg>