<svg xmlns="http://www.w3.org/2000/svg" viewBox="0 0 32 32"><style>.icon-canvas-transparent{opacity:0;fill:#f6f6f6}.icon-vs-bg{fill:#424242}.icon-vs-yellow{fill:#fc0}.icon-f12-ltgrey-disabled{fill:#ababac}.graph-lightgrey{fill:#dfdfdf}</style><path class="icon-canvas-transparent" d="M32 32H0V0h32v32z" id="canvas"/><g id="iconFg"><path class="icon-f12-ltgrey-disabled" d="M16 30c-6.012 0-10-1.806-10-3v-5.119C8.265 23.277 12.143 24 16 24s7.735-.723 10-2.119V27c0 1.194-3.988 3-10 3zm10-18V7.881C23.735 9.277 19.857 10 16 10S8.265 9.277 6 7.881V12c0 1.194 3.988 3 10 3 6.012 0 10-1.806 10-3z"/><path class="icon-vs-yellow" d="M16 22c-6.012 0-10-1.806-10-3v-4.119C8.265 16.277 12.143 17 16 17s7.735-.723 10-2.119V19c0 1.194-3.988 3-10 3z"/><path class="graph-lightgrey" d="M16 2c6.012 0 10 1.806 10 3s-3.988 3-10 3C9.988 8 6 6.194 6 5s3.988-3 10-3z"/></g><g id="iconBg"><path class="icon-vs-bg" d="M16 0C10.037 0 4 1.718 4 5v22c0 3.282 6.037 5 12 5s12-1.718 12-5V5c0-3.282-6.037-5-12-5zm0 2c6.012 0 10 1.806 10 3s-3.988 3-10 3C9.988 8 6 6.194 6 5s3.988-3 10-3zm0 28c-6.012 0-10-1.806-10-3v-5.119C8.265 23.277 12.143 24 16 24s7.735-.723 10-2.119V27c0 1.194-3.988 3-10 3zm0-8c-6.012 0-10-1.806-10-3v-4.119C8.265 16.277 12.143 17 16 17s7.735-.723 10-2.119V19c0 1.194-3.988 3-10 3zm0-7c-6.012 0-10-1.806-10-3V7.881C8.265 9.277 12.143 10 16 10s7.735-.723 10-2.119V12c0 1.194-3.988 3-10 3z"/></g></svg>