<svg xmlns="http://www.w3.org/2000/svg" viewBox="0 0 32 32"><style>.icon-canvas-transparent{opacity:0;fill:#f6f6f6}.icon-vs-blue{fill:#1ba1e2}.icon-white{fill:#fff}</style><path class="icon-canvas-transparent" d="M32 32H0V0h32v32z" id="canvas"/><path class="icon-white" d="M30 16c0 7.732-6.268 14-14 14S2 23.732 2 16 8.268 2 16 2s14 6.268 14 14z" id="iconFg"/><path class="icon-vs-blue" d="M16 0C7.178 0 0 7.178 0 16s7.178 16 16 16 16-7.178 16-16S24.822 0 16 0zm12.63 10h-5.198c-.583-2.961-1.587-5.464-2.876-7.224A14.055 14.055 0 0 1 28.63 10zM30 16c0 1.39-.21 2.731-.59 4h-5.663c.16-1.277.253-2.611.253-4s-.093-2.723-.252-4h5.663c.379 1.269.589 2.61.589 4zM16 30c-2.081 0-4.331-3.099-5.386-8h10.772c-1.055 4.901-3.305 8-5.386 8zm-5.733-10a30.013 30.013 0 0 1 0-8h11.466a30.013 30.013 0 0 1 0 8H10.267zM2 16c0-1.39.21-2.731.59-4h5.663C8.093 13.277 8 14.611 8 16s.093 2.723.252 4H2.59C2.21 18.731 2 17.39 2 16zM16 2c2.081 0 4.331 3.099 5.386 8H10.614C11.669 5.099 13.919 2 16 2zm-4.556.776C10.155 4.536 9.151 7.039 8.568 10H3.37a14.055 14.055 0 0 1 8.074-7.224zM3.37 22h5.198c.583 2.961 1.587 5.464 2.876 7.224A14.055 14.055 0 0 1 3.37 22zm17.186 7.224c1.289-1.76 2.293-4.263 2.876-7.224h5.198a14.055 14.055 0 0 1-8.074 7.224z" id="iconBg"/></svg>